<?xml version="1.0" encoding="UTF-8" standalone="no"?>
<!DOCTYPE svg PUBLIC "-//W3C//DTD SVG 1.1//EN" "http://www.w3.org/Graphics/SVG/1.1/DTD/svg11.dtd">
<svg xmlns="http://www.w3.org/2000/svg" version="1.1" viewBox="0.00 0.00 128.00 128.00" width="640.00px" height="640.00px">
<g stroke-width="3.00" fill="none" stroke-linecap="butt">
<path stroke="#2b241d" vector-effect="non-scaling-stroke" d="
  M 57.23 29.55
  Q 56.97 37.64 63.56 35.28
  A 1.25 1.21 -86.6 0 0 64.25 34.65
  L 65.51 32.00"
/>
<path stroke="#3f3429" vector-effect="non-scaling-stroke" d="
  M 65.51 32.00
  L 67.41 30.02
  A 0.29 0.28 63.4 0 1 67.90 30.19
  Q 68.15 32.20 67.41 34.14
  A 1.12 1.12 0.0 0 0 67.97 35.56
  L 72.45 37.73
  A 0.65 0.64 32.2 0 0 73.24 37.56
  C 75.73 34.47 79.15 34.45 82.65 33.83
  A 0.31 0.30 59.9 0 0 82.79 33.29
  C 79.65 30.74 77.20 30.55 72.42 30.61
  A 3.52 3.51 61.5 0 1 70.44 30.02
  Q 69.29 29.26 68.39 27.97
  C 66.57 25.36 63.64 23.81 60.77 22.91
  A 2.29 2.25 47.7 0 0 59.70 22.85
  C 56.41 23.46 53.89 24.63 50.26 22.80
  Q 47.83 21.56 46.66 21.35
  A 3.02 3.02 0.0 0 0 44.90 21.55
  L 37.95 24.50
  A 1.08 1.08 0.0 0 0 38.13 26.54
  L 46.20 28.39
  A 0.25 0.23 66.4 0 1 46.31 28.44
  Q 48.91 30.18 54.46 31.43
  A 0.46 0.46 0.0 0 0 55.01 30.94
  Q 54.80 28.68 54.04 27.20
  A 0.59 0.59 0.0 0 1 54.98 26.51
  Q 56.35 27.86 57.23 29.55"
/>
<path stroke="#695846" vector-effect="non-scaling-stroke" d="
  M 65.51 32.00
  Q 60.95 31.75 57.23 29.55"
/>
<path stroke="#2b241d" vector-effect="non-scaling-stroke" d="
  M 52.32 43.09
  Q 55.14 51.12 51.27 50.82"
/>
<path stroke="#3f3429" vector-effect="non-scaling-stroke" d="
  M 51.27 50.82
  C 47.58 50.67 45.44 54.21 42.79 56.97
  A 0.89 0.89 0.0 0 1 41.35 55.97
  L 43.54 51.43
  A 1.05 1.05 0.0 0 0 43.05 50.02
  L 41.90 49.46
  A 1.44 1.44 0.0 0 0 40.10 49.92
  C 35.92 55.80 33.47 58.79 31.96 63.97
  A 1.69 1.66 44.4 0 0 31.98 65.01
  Q 32.72 67.21 34.72 67.73
  Q 39.68 69.04 42.03 70.89"
/>
<path stroke="#2b241d" vector-effect="non-scaling-stroke" d="
  M 42.03 70.89
  Q 38.26 72.73 33.19 71.60
  Q 31.64 71.26 30.85 71.53
  C 28.68 72.26 26.62 75.99 26.12 77.76
  A 2.17 2.17 0.0 0 0 27.26 80.29
  L 35.40 84.22
  A 1.26 1.26 0.0 0 1 35.06 86.59
  C 30.98 87.29 27.59 84.87 23.56 82.26
  A 0.84 0.84 0.0 0 0 22.55 82.32
  Q 17.49 86.61 18.66 93.66
  C 19.35 97.83 28.80 101.60 32.27 102.61
  C 43.87 105.99 56.01 106.64 67.88 103.75"
/>
<path stroke="#3f3429" vector-effect="non-scaling-stroke" d="
  M 67.88 103.75
  Q 72.77 103.21 77.10 101.00
  A 4.56 4.36 -79.0 0 0 78.09 100.30
  Q 80.64 97.90 84.85 94.06
  Q 86.43 92.63 88.05 92.38
  Q 92.38 91.72 93.35 87.22
  C 94.61 81.35 86.45 73.05 83.30 69.57
  A 1.74 1.74 0.0 0 0 80.78 69.50
  L 78.64 71.65
  A 0.87 0.81 -71.4 0 1 78.25 71.86
  Q 77.63 71.98 77.02 71.78"
/>
<path stroke="#5f4e39" vector-effect="non-scaling-stroke" d="
  M 77.02 71.78
  Q 77.49 71.23 78.08 70.78
  Q 78.99 70.08 78.69 69.69
  Q 78.28 69.15 77.55 68.85
  A 0.38 0.38 0.0 0 1 77.56 68.14
  C 80.58 66.98 80.17 64.26 80.02 61.56
  Q 79.88 58.90 78.48 54.08
  A 1.10 1.07 -76.7 0 0 78.21 53.63
  L 76.36 51.78
  A 0.51 0.51 0.0 0 1 76.36 51.06
  L 78.59 48.83
  A 0.38 0.37 22.3 0 0 78.32 48.19
  L 76.92 48.19
  A 0.76 0.76 0.0 0 1 76.26 47.81
  Q 72.73 41.75 71.95 40.80
  Q 71.07 39.71 66.98 37.52
  A 1.42 1.33 -29.4 0 0 66.33 37.36
  L 60.35 37.36
  A 0.38 0.37 71.8 0 0 60.05 37.96
  Q 63.89 43.11 67.65 47.08
  C 68.25 47.71 67.98 48.64 68.13 49.09
  A 0.40 0.40 0.0 0 0 68.78 49.26
  Q 69.17 48.91 69.47 48.41
  A 0.75 0.66 -27.0 0 1 70.82 48.76
  Q 70.53 50.29 71.56 50.97
  A 1.18 1.18 0.0 0 1 72.08 51.95
  L 72.08 54.39
  A 0.44 0.44 0.0 0 0 72.91 54.58
  L 73.51 53.34
  A 0.33 0.33 0.0 0 1 74.09 53.32
  L 74.57 54.15
  A 0.62 0.62 0.0 0 1 74.29 55.02
  Q 73.37 55.45 72.77 56.28"
/>
<path stroke="#4d3f31" vector-effect="non-scaling-stroke" d="
  M 72.77 56.28
  Q 72.60 56.31 72.37 56.46"
/>
<path stroke="#3f3429" vector-effect="non-scaling-stroke" d="
  M 72.37 56.46
  Q 71.08 57.42 69.56 57.49"
/>
<path stroke="#2b241d" vector-effect="non-scaling-stroke" d="
  M 69.56 57.49
  C 65.02 57.27 60.36 58.24 57.29 54.05
  A 3.56 3.21 46.0 0 1 57.15 50.00
  Q 57.92 48.96 59.19 46.13"
/>
<path stroke="#3f3429" vector-effect="non-scaling-stroke" d="
  M 59.19 46.13
  Q 62.66 50.63 67.64 51.09
  A 0.40 0.40 0.0 0 0 68.06 50.57
  C 67.71 49.47 66.20 49.15 65.46 47.99
  Q 64.10 45.87 61.93 44.88
  A 4.30 4.18 79.5 0 1 60.59 43.93
  C 56.30 39.42 55.89 35.14 48.45 34.52
  Q 45.88 34.31 44.01 31.63
  A 2.45 2.45 0.0 0 0 42.00 30.58
  L 39.12 30.58
  A 0.39 0.39 0.0 0 0 38.79 31.17
  L 44.57 41.19
  A 1.10 1.10 0.0 0 0 46.61 40.81
  Q 46.73 40.01 46.33 38.19
  Q 46.30 38.02 46.46 37.83
  Q 46.72 37.53 47.07 37.65
  A 0.38 0.33 -0.3 0 1 47.26 37.81
  L 48.39 39.77
  A 0.93 0.92 -30.0 0 0 49.66 40.10
  L 49.99 39.91
  A 0.79 0.79 0.0 0 1 51.04 40.16
  Q 52.09 41.76 52.32 43.09"
/>
<path stroke="#695846" vector-effect="non-scaling-stroke" d="
  M 59.19 46.13
  Q 55.76 45.92 52.32 43.09"
/>
<path stroke="#695846" vector-effect="non-scaling-stroke" d="
  M 69.56 57.49
  Q 65.29 59.99 60.46 60.26
  A 1.06 1.05 66.9 0 1 59.62 59.92
  L 51.27 50.82"
/>
<path stroke="#8b735a" vector-effect="non-scaling-stroke" d="
  M 72.37 56.46
  Q 71.79 62.38 66.98 65.97
  Q 64.37 67.91 61.81 69.85
  Q 56.66 73.76 57.41 79.52
  A 1.92 1.91 87.0 0 0 59.26 81.19
  Q 67.82 81.39 71.79 74.54"
/>
<path stroke="#3f3429" vector-effect="non-scaling-stroke" d="
  M 71.79 74.54
  L 75.77 72.87
  A 0.72 0.70 -79.2 0 0 76.03 72.69
  Q 76.37 72.31 76.05 72.51"
/>
<path stroke="#695846" vector-effect="non-scaling-stroke" d="
  M 67.88 103.75
  Q 62.79 100.58 58.47 96.69
  Q 54.97 93.54 53.59 92.80
  C 50.30 91.05 46.47 89.68 43.49 86.74
  A 1.31 1.29 21.0 0 1 43.11 85.90
  L 42.03 70.89"
/>
<path stroke="#9d8262" vector-effect="non-scaling-stroke" d="
  M 77.02 71.78
  L 76.05 72.51"
/>
<path stroke="#5f4e39" vector-effect="non-scaling-stroke" d="
  M 76.05 72.51
  Q 76.23 70.57 75.61 69.58
  A 0.58 0.58 0.0 0 0 74.85 69.38
  Q 71.25 71.34 67.04 71.90"
/>
<path stroke="#ab8d69" vector-effect="non-scaling-stroke" d="
  M 67.04 71.90
  C 67.22 67.69 69.92 65.29 72.23 62.33
  Q 74.71 59.15 72.77 56.28"
/>
<path stroke="#4d3f31" vector-effect="non-scaling-stroke" d="
  M 67.04 71.90
  Q 64.20 71.66 62.68 73.75
  A 0.54 0.54 0.0 0 0 62.92 74.57
  C 65.81 75.74 68.80 74.61 71.79 74.54"
/>
<path stroke="#4d3f31" vector-effect="non-scaling-stroke" d="
  M 86.63 38.13
  A 0.36 0.35 -57.2 0 0 86.50 37.51
  Q 81.10 36.19 77.58 39.73
  Q 75.26 42.05 76.47 45.01
  A 0.80 0.80 0.0 0 0 77.82 45.23
  L 80.13 42.54
  A 0.63 0.57 -81.4 0 1 80.29 42.41
  Q 84.48 39.82 86.63 38.13"
/>
<path stroke="#76695a" vector-effect="non-scaling-stroke" d="
  M 40.49 42.61
  A 0.40 0.40 0.0 0 0 39.96 43.19
  C 40.90 44.51 43.63 47.55 45.53 47.93
  Q 47.43 48.30 50.24 47.90
  A 0.57 0.57 0.0 0 0 50.73 47.24
  L 50.71 47.16
  A 0.61 0.61 0.0 0 0 50.06 46.65
  Q 48.01 46.82 47.09 46.36
  Q 45.56 45.59 40.49 42.61"
/>
<path stroke="#76695a" vector-effect="non-scaling-stroke" d="
  M 35.30 42.81
  Q 33.88 43.42 33.40 43.43
  Q 27.87 43.52 24.43 46.76
  A 2.96 2.90 -9.2 0 0 23.78 47.64
  C 23.07 49.15 21.86 51.54 21.03 53.68
  Q 19.94 56.46 17.25 58.29
  Q 15.08 59.76 14.59 60.42
  A 0.61 0.60 18.1 0 0 15.08 61.38
  L 15.92 61.38
  A 1.82 1.80 23.1 0 0 17.16 60.89
  Q 21.30 57.02 22.62 55.20
  Q 23.21 54.40 24.42 50.01
  A 1.98 1.97 74.5 0 1 24.89 49.17
  Q 26.57 47.41 27.27 47.17
  Q 30.85 45.97 35.68 43.96
  A 0.56 0.55 70.5 0 0 36.00 43.28
  L 35.95 43.12
  A 0.49 0.48 69.9 0 0 35.30 42.81"
/>
<path stroke="#76695a" vector-effect="non-scaling-stroke" d="
  M 104.56 57.45
  C 102.76 58.47 99.67 60.26 97.69 60.05
  Q 93.51 59.60 91.11 55.62
  Q 88.21 50.81 85.05 48.28
  A 1.98 1.92 -20.2 0 0 84.08 47.85
  Q 82.59 47.64 81.53 48.20
  A 0.40 0.40 0.0 0 0 81.63 48.94
  C 85.06 49.70 86.66 51.57 88.42 55.05
  C 90.84 59.82 93.98 63.65 99.67 62.57
  Q 100.68 62.38 104.83 59.72
  A 1.53 1.51 -16.4 0 0 105.54 58.44
  L 105.54 58.03
  A 0.66 0.66 0.0 0 0 104.56 57.45"
/>
<path stroke="#76695a" vector-effect="non-scaling-stroke" d="
  M 59.97 52.20
  A 0.83 0.82 -63.8 0 0 60.24 53.01
  L 61.89 54.39
  A 1.14 1.13 -22.6 0 0 62.51 54.64
  Q 64.17 54.76 65.20 55.22
  C 67.02 56.04 69.15 55.16 70.40 54.39
  A 0.56 0.56 0.0 0 0 70.04 53.36
  Q 64.91 54.00 60.90 51.49
  A 0.57 0.56 -67.6 0 0 60.05 51.85
  L 59.97 52.20"
/>
<path stroke="#5f4e39" vector-effect="non-scaling-stroke" d="
  M 118.15 107.16
  C 113.96 104.41 111.56 103.04 106.60 101.60
  Q 98.22 99.18 91.23 94.94
  A 1.99 1.93 -28.5 0 0 90.20 94.65
  Q 87.84 94.66 86.25 96.26
  Q 80.92 101.63 78.12 103.68
  A 6.90 6.68 13.9 0 1 76.74 104.48
  Q 71.63 106.70 66.83 109.87
  A 1.63 1.34 -34.5 0 0 66.23 111.94
  Q 67.24 113.34 69.49 113.36
  Q 75.30 113.40 81.20 113.36
  A 5.81 5.68 53.5 0 1 83.00 113.65
  Q 84.77 114.23 87.95 115.78
  C 90.70 117.12 98.20 118.78 100.49 115.95
  Q 103.56 112.15 107.86 111.36
  Q 113.22 110.37 118.06 108.23
  A 0.61 0.61 0.0 0 0 118.15 107.16"
/>
<path stroke="#9d8262" vector-effect="non-scaling-stroke" d="
  M 79.1672 83.9275
  A 2.20 0.62 -118.0 0 0 79.6526 86.1611
  A 2.20 0.62 -118.0 0 0 81.2328 87.8125
  A 2.20 0.62 -118.0 0 0 80.7474 85.5789
  A 2.20 0.62 -118.0 0 0 79.1672 83.9275"
/>
</g>
<path fill="#000000" d="
  M 35.67 47.39
  A 0.36 0.35 -88.1 0 0 35.25 46.94
  Q 32.36 47.62 29.22 48.47
  Q 27.27 49.00 26.90 50.65
  Q 26.70 51.56 26.38 51.72
  Q 25.98 51.93 25.81 52.08
  A 1.64 1.61 -11.9 0 0 25.28 52.88
  C 24.08 56.99 21.62 59.02 18.17 62.37
  A 1.81 1.77 12.8 0 1 17.52 62.77
  C 14.44 63.81 12.11 61.80 13.20 58.62
  A 1.58 1.53 -8.1 0 1 13.83 57.81
  C 17.13 55.65 19.32 53.87 20.10 50.50
  C 20.72 47.78 22.20 45.90 24.49 43.94
  C 25.95 42.69 27.90 43.10 29.46 41.92
  Q 30.12 41.43 31.47 41.16
  Q 37.94 39.90 38.37 39.85
  A 0.45 0.45 0.0 0 0 38.65 39.11
  Q 36.12 36.13 34.74 33.21
  A 5.56 4.75 -80.3 0 0 34.28 32.44
  Q 32.48 29.88 31.17 27.26
  A 1.92 1.92 0.0 0 1 31.31 25.32
  C 35.18 19.63 42.44 18.34 48.95 19.18
  Q 55.33 19.99 62.72 20.06
  Q 66.14 20.10 68.15 22.29
  C 69.55 23.81 71.14 24.39 72.06 26.15
  A 1.55 1.54 -13.6 0 0 73.43 26.98
  C 79.02 26.98 83.01 26.99 87.36 30.78
  C 89.07 32.28 91.30 34.28 92.04 36.38
  A 2.60 2.51 68.5 0 1 90.71 39.59
  Q 88.66 40.50 87.31 43.06
  A 1.11 1.10 -82.8 0 1 86.62 43.60
  L 84.72 44.06
  A 0.54 0.54 0.0 0 0 84.48 44.98
  C 87.51 47.82 91.10 50.74 92.40 54.47
  A 1.83 1.81 -81.9 0 0 93.07 55.37
  Q 96.39 57.73 99.27 56.94
  Q 103.78 55.70 104.05 55.53
  A 0.89 0.88 42.1 0 1 104.94 55.49
  Q 105.75 55.91 107.31 56.06
  A 0.72 0.72 0.0 0 1 107.95 56.70
  Q 108.21 58.92 107.72 59.70
  Q 106.31 61.92 103.57 63.28
  Q 94.50 67.79 88.80 60.12
  A 3.35 3.35 0.0 0 1 88.33 59.25
  C 87.34 56.52 86.23 53.78 83.69 52.41
  A 0.53 0.53 0.0 0 0 82.91 52.83
  C 82.76 54.52 83.92 55.34 83.95 56.79
  C 84.03 61.34 83.94 64.61 87.47 68.01
  C 89.12 69.60 92.43 72.44 93.26 74.76
  A 1.82 1.76 -81.2 0 0 93.81 75.54
  C 98.32 79.23 97.44 88.42 96.11 93.27
  A 2.03 2.03 0.0 0 0 97.53 95.76
  L 103.13 97.32
  A 1.18 1.15 74.5 0 1 103.59 97.59
  L 104.33 98.34
  A 1.37 1.29 73.4 0 0 104.88 98.66
  Q 108.83 99.74 111.57 100.41
  Q 112.70 100.69 115.93 103.13
  A 5.76 5.30 72.4 0 0 117.10 103.80
  C 119.97 105.02 122.35 107.46 119.74 110.34
  A 1.56 1.54 -75.3 0 1 118.93 110.82
  L 108.93 113.29
  A 1.44 1.43 13.2 0 0 108.18 113.75
  L 107.71 114.31
  A 0.95 0.92 14.1 0 1 107.14 114.64
  Q 105.47 114.94 102.44 117.94
  Q 99.78 120.57 95.99 120.00
  Q 92.13 119.42 88.16 118.83
  A 2.29 2.24 68.5 0 1 87.02 118.32
  Q 84.01 115.81 80.02 115.91
  Q 71.46 116.11 67.80 115.73
  Q 65.66 115.51 64.07 114.18
  A 2.00 1.99 -77.4 0 1 63.42 113.15
  L 62.68 110.14
  A 1.16 1.15 4.0 0 0 61.97 109.33
  Q 60.51 108.76 59.41 110.11
  A 1.75 1.72 -74.9 0 1 58.37 110.72
  Q 52.81 111.73 46.13 110.43
  A 1.02 0.90 -18.8 0 1 45.77 110.28
  L 44.65 109.54
  A 1.32 1.32 0.0 0 0 43.97 109.33
  C 38.34 109.18 30.66 108.23 25.14 105.39
  C 20.83 103.17 17.44 102.52 14.43 96.77
  A 1.28 1.28 0.0 0 0 13.92 96.26
  Q 13.77 96.18 13.74 96.15
  A 0.59 0.58 -84.4 0 1 13.48 95.83
  Q 12.33 92.08 13.31 87.82
  A 0.82 0.53 78.0 0 1 13.36 87.69
  L 16.75 81.15
  A 1.65 1.54 85.0 0 1 17.15 80.64
  L 18.78 79.29
  A 2.04 1.97 -6.5 0 0 19.29 78.67
  Q 22.15 73.18 26.73 68.74
  A 3.85 3.85 0.0 0 0 27.79 65.05
  L 27.19 62.63
  A 1.50 1.49 50.1 0 1 27.27 61.68
  L 29.35 56.75
  A 1.00 0.98 85.3 0 1 29.74 56.28
  Q 31.32 55.23 31.91 53.70
  C 32.90 51.16 34.85 50.12 35.67 47.39
  Z
  M 57.23 29.55
  Q 56.97 37.64 63.56 35.28
  A 1.25 1.21 -86.6 0 0 64.25 34.65
  L 65.51 32.00
  L 67.41 30.02
  A 0.29 0.28 63.4 0 1 67.90 30.19
  Q 68.15 32.20 67.41 34.14
  A 1.12 1.12 0.0 0 0 67.97 35.56
  L 72.45 37.73
  A 0.65 0.64 32.2 0 0 73.24 37.56
  C 75.73 34.47 79.15 34.45 82.65 33.83
  A 0.31 0.30 59.9 0 0 82.79 33.29
  C 79.65 30.74 77.20 30.55 72.42 30.61
  A 3.52 3.51 61.5 0 1 70.44 30.02
  Q 69.29 29.26 68.39 27.97
  C 66.57 25.36 63.64 23.81 60.77 22.91
  A 2.29 2.25 47.7 0 0 59.70 22.85
  C 56.41 23.46 53.89 24.63 50.26 22.80
  Q 47.83 21.56 46.66 21.35
  A 3.02 3.02 0.0 0 0 44.90 21.55
  L 37.95 24.50
  A 1.08 1.08 0.0 0 0 38.13 26.54
  L 46.20 28.39
  A 0.25 0.23 66.4 0 1 46.31 28.44
  Q 48.91 30.18 54.46 31.43
  A 0.46 0.46 0.0 0 0 55.01 30.94
  Q 54.80 28.68 54.04 27.20
  A 0.59 0.59 0.0 0 1 54.98 26.51
  Q 56.35 27.86 57.23 29.55
  Z
  M 52.32 43.09
  Q 55.14 51.12 51.27 50.82
  C 47.58 50.67 45.44 54.21 42.79 56.97
  A 0.89 0.89 0.0 0 1 41.35 55.97
  L 43.54 51.43
  A 1.05 1.05 0.0 0 0 43.05 50.02
  L 41.90 49.46
  A 1.44 1.44 0.0 0 0 40.10 49.92
  C 35.92 55.80 33.47 58.79 31.96 63.97
  A 1.69 1.66 44.4 0 0 31.98 65.01
  Q 32.72 67.21 34.72 67.73
  Q 39.68 69.04 42.03 70.89
  Q 38.26 72.73 33.19 71.60
  Q 31.64 71.26 30.85 71.53
  C 28.68 72.26 26.62 75.99 26.12 77.76
  A 2.17 2.17 0.0 0 0 27.26 80.29
  L 35.40 84.22
  A 1.26 1.26 0.0 0 1 35.06 86.59
  C 30.98 87.29 27.59 84.87 23.56 82.26
  A 0.84 0.84 0.0 0 0 22.55 82.32
  Q 17.49 86.61 18.66 93.66
  C 19.35 97.83 28.80 101.60 32.27 102.61
  C 43.87 105.99 56.01 106.64 67.88 103.75
  Q 72.77 103.21 77.10 101.00
  A 4.56 4.36 -79.0 0 0 78.09 100.30
  Q 80.64 97.90 84.85 94.06
  Q 86.43 92.63 88.05 92.38
  Q 92.38 91.72 93.35 87.22
  C 94.61 81.35 86.45 73.05 83.30 69.57
  A 1.74 1.74 0.0 0 0 80.78 69.50
  L 78.64 71.65
  A 0.87 0.81 -71.4 0 1 78.25 71.86
  Q 77.63 71.98 77.02 71.78
  Q 77.49 71.23 78.08 70.78
  Q 78.99 70.08 78.69 69.69
  Q 78.28 69.15 77.55 68.85
  A 0.38 0.38 0.0 0 1 77.56 68.14
  C 80.58 66.98 80.17 64.26 80.02 61.56
  Q 79.88 58.90 78.48 54.08
  A 1.10 1.07 -76.7 0 0 78.21 53.63
  L 76.36 51.78
  A 0.51 0.51 0.0 0 1 76.36 51.06
  L 78.59 48.83
  A 0.38 0.37 22.3 0 0 78.32 48.19
  L 76.92 48.19
  A 0.76 0.76 0.0 0 1 76.26 47.81
  Q 72.73 41.75 71.95 40.80
  Q 71.07 39.71 66.98 37.52
  A 1.42 1.33 -29.4 0 0 66.33 37.36
  L 60.35 37.36
  A 0.38 0.37 71.8 0 0 60.05 37.96
  Q 63.89 43.11 67.65 47.08
  C 68.25 47.71 67.98 48.64 68.13 49.09
  A 0.40 0.40 0.0 0 0 68.78 49.26
  Q 69.17 48.91 69.47 48.41
  A 0.75 0.66 -27.0 0 1 70.82 48.76
  Q 70.53 50.29 71.56 50.97
  A 1.18 1.18 0.0 0 1 72.08 51.95
  L 72.08 54.39
  A 0.44 0.44 0.0 0 0 72.91 54.58
  L 73.51 53.34
  A 0.33 0.33 0.0 0 1 74.09 53.32
  L 74.57 54.15
  A 0.62 0.62 0.0 0 1 74.29 55.02
  Q 73.37 55.45 72.77 56.28
  Q 72.60 56.31 72.37 56.46
  Q 71.08 57.42 69.56 57.49
  C 65.02 57.27 60.36 58.24 57.29 54.05
  A 3.56 3.21 46.0 0 1 57.15 50.00
  Q 57.92 48.96 59.19 46.13
  Q 62.66 50.63 67.64 51.09
  A 0.40 0.40 0.0 0 0 68.06 50.57
  C 67.71 49.47 66.20 49.15 65.46 47.99
  Q 64.10 45.87 61.93 44.88
  A 4.30 4.18 79.5 0 1 60.59 43.93
  C 56.30 39.42 55.89 35.14 48.45 34.52
  Q 45.88 34.31 44.01 31.63
  A 2.45 2.45 0.0 0 0 42.00 30.58
  L 39.12 30.58
  A 0.39 0.39 0.0 0 0 38.79 31.17
  L 44.57 41.19
  A 1.10 1.10 0.0 0 0 46.61 40.81
  Q 46.73 40.01 46.33 38.19
  Q 46.30 38.02 46.46 37.83
  Q 46.72 37.53 47.07 37.65
  A 0.38 0.33 -0.3 0 1 47.26 37.81
  L 48.39 39.77
  A 0.93 0.92 -30.0 0 0 49.66 40.10
  L 49.99 39.91
  A 0.79 0.79 0.0 0 1 51.04 40.16
  Q 52.09 41.76 52.32 43.09
  Z
  M 86.63 38.13
  A 0.36 0.35 -57.2 0 0 86.50 37.51
  Q 81.10 36.19 77.58 39.73
  Q 75.26 42.05 76.47 45.01
  A 0.80 0.80 0.0 0 0 77.82 45.23
  L 80.13 42.54
  A 0.63 0.57 -81.4 0 1 80.29 42.41
  Q 84.48 39.82 86.63 38.13
  Z
  M 40.49 42.61
  A 0.40 0.40 0.0 0 0 39.96 43.19
  C 40.90 44.51 43.63 47.55 45.53 47.93
  Q 47.43 48.30 50.24 47.90
  A 0.57 0.57 0.0 0 0 50.73 47.24
  L 50.71 47.16
  A 0.61 0.61 0.0 0 0 50.06 46.65
  Q 48.01 46.82 47.09 46.36
  Q 45.56 45.59 40.49 42.61
  Z
  M 35.30 42.81
  Q 33.88 43.42 33.40 43.43
  Q 27.87 43.52 24.43 46.76
  A 2.96 2.90 -9.2 0 0 23.78 47.64
  C 23.07 49.15 21.86 51.54 21.03 53.68
  Q 19.94 56.46 17.25 58.29
  Q 15.08 59.76 14.59 60.42
  A 0.61 0.60 18.1 0 0 15.08 61.38
  L 15.92 61.38
  A 1.82 1.80 23.1 0 0 17.16 60.89
  Q 21.30 57.02 22.62 55.20
  Q 23.21 54.40 24.42 50.01
  A 1.98 1.97 74.5 0 1 24.89 49.17
  Q 26.57 47.41 27.27 47.17
  Q 30.85 45.97 35.68 43.96
  A 0.56 0.55 70.5 0 0 36.00 43.28
  L 35.95 43.12
  A 0.49 0.48 69.9 0 0 35.30 42.81
  Z
  M 104.56 57.45
  C 102.76 58.47 99.67 60.26 97.69 60.05
  Q 93.51 59.60 91.11 55.62
  Q 88.21 50.81 85.05 48.28
  A 1.98 1.92 -20.2 0 0 84.08 47.85
  Q 82.59 47.64 81.53 48.20
  A 0.40 0.40 0.0 0 0 81.63 48.94
  C 85.06 49.70 86.66 51.57 88.42 55.05
  C 90.84 59.82 93.98 63.65 99.67 62.57
  Q 100.68 62.38 104.83 59.72
  A 1.53 1.51 -16.4 0 0 105.54 58.44
  L 105.54 58.03
  A 0.66 0.66 0.0 0 0 104.56 57.45
  Z
  M 59.97 52.20
  A 0.83 0.82 -63.8 0 0 60.24 53.01
  L 61.89 54.39
  A 1.14 1.13 -22.6 0 0 62.51 54.64
  Q 64.17 54.76 65.20 55.22
  C 67.02 56.04 69.15 55.16 70.40 54.39
  A 0.56 0.56 0.0 0 0 70.04 53.36
  Q 64.91 54.00 60.90 51.49
  A 0.57 0.56 -67.6 0 0 60.05 51.85
  L 59.97 52.20
  Z
  M 118.15 107.16
  C 113.96 104.41 111.56 103.04 106.60 101.60
  Q 98.22 99.18 91.23 94.94
  A 1.99 1.93 -28.5 0 0 90.20 94.65
  Q 87.84 94.66 86.25 96.26
  Q 80.92 101.63 78.12 103.68
  A 6.90 6.68 13.9 0 1 76.74 104.48
  Q 71.63 106.70 66.83 109.87
  A 1.63 1.34 -34.5 0 0 66.23 111.94
  Q 67.24 113.34 69.49 113.36
  Q 75.30 113.40 81.20 113.36
  A 5.81 5.68 53.5 0 1 83.00 113.65
  Q 84.77 114.23 87.95 115.78
  C 90.70 117.12 98.20 118.78 100.49 115.95
  Q 103.56 112.15 107.86 111.36
  Q 113.22 110.37 118.06 108.23
  A 0.61 0.61 0.0 0 0 118.15 107.16
  Z"
/>
<path fill="#7d6852" d="
  M 65.51 32.00
  Q 60.95 31.75 57.23 29.55
  Q 56.35 27.86 54.98 26.51
  A 0.59 0.59 0.0 0 0 54.04 27.20
  Q 54.80 28.68 55.01 30.94
  A 0.46 0.46 0.0 0 1 54.46 31.43
  Q 48.91 30.18 46.31 28.44
  A 0.25 0.23 66.4 0 0 46.20 28.39
  L 38.13 26.54
  A 1.08 1.08 0.0 0 1 37.95 24.50
  L 44.90 21.55
  A 3.02 3.02 0.0 0 1 46.66 21.35
  Q 47.83 21.56 50.26 22.80
  C 53.89 24.63 56.41 23.46 59.70 22.85
  A 2.29 2.25 47.7 0 1 60.77 22.91
  C 63.64 23.81 66.57 25.36 68.39 27.97
  Q 69.29 29.26 70.44 30.02
  A 3.52 3.51 61.5 0 0 72.42 30.61
  C 77.20 30.55 79.65 30.74 82.79 33.29
  A 0.31 0.30 59.9 0 1 82.65 33.83
  C 79.15 34.45 75.73 34.47 73.24 37.56
  A 0.65 0.64 32.2 0 1 72.45 37.73
  L 67.97 35.56
  A 1.12 1.12 0.0 0 1 67.41 34.14
  Q 68.15 32.20 67.90 30.19
  A 0.29 0.28 63.4 0 0 67.41 30.02
  L 65.51 32.00
  Z"
/>
<path fill="#554739" d="
  M 65.51 32.00
  L 64.25 34.65
  A 1.25 1.21 -86.6 0 1 63.56 35.28
  Q 56.97 37.64 57.23 29.55
  Q 60.95 31.75 65.51 32.00
  Z"
/>
<path fill="#7d6852" d="
  M 59.19 46.13
  Q 55.76 45.92 52.32 43.09
  Q 52.09 41.76 51.04 40.16
  A 0.79 0.79 0.0 0 0 49.99 39.91
  L 49.66 40.10
  A 0.93 0.92 -30.0 0 1 48.39 39.77
  L 47.26 37.81
  A 0.38 0.33 -0.3 0 0 47.07 37.65
  Q 46.72 37.53 46.46 37.83
  Q 46.30 38.02 46.33 38.19
  Q 46.73 40.01 46.61 40.81
  A 1.10 1.10 0.0 0 1 44.57 41.19
  L 38.79 31.17
  A 0.39 0.39 0.0 0 1 39.12 30.58
  L 42.00 30.58
  A 2.45 2.45 0.0 0 1 44.01 31.63
  Q 45.88 34.31 48.45 34.52
  C 55.89 35.14 56.30 39.42 60.59 43.93
  A 4.30 4.18 79.5 0 0 61.93 44.88
  Q 64.10 45.87 65.46 47.99
  C 66.20 49.15 67.71 49.47 68.06 50.57
  A 0.40 0.40 0.0 0 1 67.64 51.09
  Q 62.66 50.63 59.19 46.13
  Z"
/>
<path fill="#bd9c71" d="
  M 77.02 71.78
  L 76.05 72.51
  Q 76.23 70.57 75.61 69.58
  A 0.58 0.58 0.0 0 0 74.85 69.38
  Q 71.25 71.34 67.04 71.90
  C 67.22 67.69 69.92 65.29 72.23 62.33
  Q 74.71 59.15 72.77 56.28
  Q 73.37 55.45 74.29 55.02
  A 0.62 0.62 0.0 0 0 74.57 54.15
  L 74.09 53.32
  A 0.33 0.33 0.0 0 0 73.51 53.34
  L 72.91 54.58
  A 0.44 0.44 0.0 0 1 72.08 54.39
  L 72.08 51.95
  A 1.18 1.18 0.0 0 0 71.56 50.97
  Q 70.53 50.29 70.82 48.76
  A 0.75 0.66 -27.0 0 0 69.47 48.41
  Q 69.17 48.91 68.78 49.26
  A 0.40 0.40 0.0 0 1 68.13 49.09
  C 67.98 48.64 68.25 47.71 67.65 47.08
  Q 63.89 43.11 60.05 37.96
  A 0.38 0.37 71.8 0 1 60.35 37.36
  L 66.33 37.36
  A 1.42 1.33 -29.4 0 1 66.98 37.52
  Q 71.07 39.71 71.95 40.80
  Q 72.73 41.75 76.26 47.81
  A 0.76 0.76 0.0 0 0 76.92 48.19
  L 78.32 48.19
  A 0.38 0.37 22.3 0 1 78.59 48.83
  L 76.36 51.06
  A 0.51 0.51 0.0 0 0 76.36 51.78
  L 78.21 53.63
  A 1.10 1.07 -76.7 0 1 78.48 54.08
  Q 79.88 58.90 80.02 61.56
  C 80.17 64.26 80.58 66.98 77.56 68.14
  A 0.38 0.38 0.0 0 0 77.55 68.85
  Q 78.28 69.15 78.69 69.69
  Q 78.99 70.08 78.08 70.78
  Q 77.49 71.23 77.02 71.78
  Z"
/>
<path fill="#997e61" d="
  M 86.63 38.13
  Q 84.48 39.82 80.29 42.41
  A 0.63 0.57 -81.4 0 0 80.13 42.54
  L 77.82 45.23
  A 0.80 0.80 0.0 0 1 76.47 45.01
  Q 75.26 42.05 77.58 39.73
  Q 81.10 36.19 86.50 37.51
  A 0.36 0.35 -57.2 0 1 86.63 38.13
  Z"
/>
<path fill="#ebd2b3" d="
  M 40.49 42.61
  Q 45.56 45.59 47.09 46.36
  Q 48.01 46.82 50.06 46.65
  A 0.61 0.61 0.0 0 1 50.71 47.16
  L 50.73 47.24
  A 0.57 0.57 0.0 0 1 50.24 47.90
  Q 47.43 48.30 45.53 47.93
  C 43.63 47.55 40.90 44.51 39.96 43.19
  A 0.40 0.40 0.0 0 1 40.49 42.61
  Z"
/>
<path fill="#ebd2b3" d="
  M 35.30 42.81
  A 0.49 0.48 69.9 0 1 35.95 43.12
  L 36.00 43.28
  A 0.56 0.55 70.5 0 1 35.68 43.96
  Q 30.85 45.97 27.27 47.17
  Q 26.57 47.41 24.89 49.17
  A 1.98 1.97 74.5 0 0 24.42 50.01
  Q 23.21 54.40 22.62 55.20
  Q 21.30 57.02 17.16 60.89
  A 1.82 1.80 23.1 0 1 15.92 61.38
  L 15.08 61.38
  A 0.61 0.60 18.1 0 1 14.59 60.42
  Q 15.08 59.76 17.25 58.29
  Q 19.94 56.46 21.03 53.68
  C 21.86 51.54 23.07 49.15 23.78 47.64
  A 2.96 2.90 -9.2 0 1 24.43 46.76
  Q 27.87 43.52 33.40 43.43
  Q 33.88 43.42 35.30 42.81
  Z"
/>
<path fill="#554739" d="
  M 59.19 46.13
  Q 57.92 48.96 57.15 50.00
  A 3.56 3.21 46.0 0 0 57.29 54.05
  C 60.36 58.24 65.02 57.27 69.56 57.49
  Q 65.29 59.99 60.46 60.26
  A 1.06 1.05 66.9 0 1 59.62 59.92
  L 51.27 50.82
  Q 55.14 51.12 52.32 43.09
  Q 55.76 45.92 59.19 46.13
  Z"
/>
<path fill="#ebd2b3" d="
  M 104.56 57.45
  A 0.66 0.66 0.0 0 1 105.54 58.03
  L 105.54 58.44
  A 1.53 1.51 -16.4 0 1 104.83 59.72
  Q 100.68 62.38 99.67 62.57
  C 93.98 63.65 90.84 59.82 88.42 55.05
  C 86.66 51.57 85.06 49.70 81.63 48.94
  A 0.40 0.40 0.0 0 1 81.53 48.20
  Q 82.59 47.64 84.08 47.85
  A 1.98 1.92 -20.2 0 1 85.05 48.28
  Q 88.21 50.81 91.11 55.62
  Q 93.51 59.60 97.69 60.05
  C 99.67 60.26 102.76 58.47 104.56 57.45
  Z"
/>
<path fill="#7d6852" d="
  M 51.27 50.82
  L 59.62 59.92
  A 1.06 1.05 66.9 0 0 60.46 60.26
  Q 65.29 59.99 69.56 57.49
  Q 71.08 57.42 72.37 56.46
  Q 71.79 62.38 66.98 65.97
  Q 64.37 67.91 61.81 69.85
  Q 56.66 73.76 57.41 79.52
  A 1.92 1.91 87.0 0 0 59.26 81.19
  Q 67.82 81.39 71.79 74.54
  L 75.77 72.87
  A 0.72 0.70 -79.2 0 0 76.03 72.69
  Q 76.37 72.31 76.05 72.51
  L 77.02 71.78
  Q 77.63 71.98 78.25 71.86
  A 0.87 0.81 -71.4 0 0 78.64 71.65
  L 80.78 69.50
  A 1.74 1.74 0.0 0 1 83.30 69.57
  C 86.45 73.05 94.61 81.35 93.35 87.22
  Q 92.38 91.72 88.05 92.38
  Q 86.43 92.63 84.85 94.06
  Q 80.64 97.90 78.09 100.30
  A 4.56 4.36 -79.0 0 1 77.10 101.00
  Q 72.77 103.21 67.88 103.75
  Q 62.79 100.58 58.47 96.69
  Q 54.97 93.54 53.59 92.80
  C 50.30 91.05 46.47 89.68 43.49 86.74
  A 1.31 1.29 21.0 0 1 43.11 85.90
  L 42.03 70.89
  Q 39.68 69.04 34.72 67.73
  Q 32.72 67.21 31.98 65.01
  A 1.69 1.66 44.4 0 1 31.96 63.97
  C 33.47 58.79 35.92 55.80 40.10 49.92
  A 1.44 1.44 0.0 0 1 41.90 49.46
  L 43.05 50.02
  A 1.05 1.05 0.0 0 1 43.54 51.43
  L 41.35 55.97
  A 0.89 0.89 0.0 0 0 42.79 56.97
  C 45.44 54.21 47.58 50.67 51.27 50.82
  Z
  M 79.1672 83.9275
  A 2.20 0.62 -118.0 0 0 79.6526 86.1611
  A 2.20 0.62 -118.0 0 0 81.2328 87.8125
  A 2.20 0.62 -118.0 0 0 80.7474 85.5789
  A 2.20 0.62 -118.0 0 0 79.1672 83.9275
  Z"
/>
<path fill="#ebd2b3" d="
  M 60.90 51.49
  Q 64.91 54.00 70.04 53.36
  A 0.56 0.56 0.0 0 1 70.40 54.39
  C 69.15 55.16 67.02 56.04 65.20 55.22
  Q 64.17 54.76 62.51 54.64
  A 1.14 1.13 -22.6 0 1 61.89 54.39
  L 60.24 53.01
  A 0.83 0.82 -63.8 0 1 59.97 52.20
  L 60.05 51.85
  A 0.57 0.56 -67.6 0 1 60.90 51.49
  Z"
/>
<path fill="#997e61" d="
  M 72.77 56.28
  Q 74.71 59.15 72.23 62.33
  C 69.92 65.29 67.22 67.69 67.04 71.90
  Q 64.20 71.66 62.68 73.75
  A 0.54 0.54 0.0 0 0 62.92 74.57
  C 65.81 75.74 68.80 74.61 71.79 74.54
  Q 67.82 81.39 59.26 81.19
  A 1.92 1.91 87.0 0 1 57.41 79.52
  Q 56.66 73.76 61.81 69.85
  Q 64.37 67.91 66.98 65.97
  Q 71.79 62.38 72.37 56.46
  Q 72.60 56.31 72.77 56.28
  Z"
/>
<path fill="#000000" d="
  M 76.05 72.51
  Q 76.37 72.31 76.03 72.69
  A 0.72 0.70 -79.2 0 1 75.77 72.87
  L 71.79 74.54
  C 68.80 74.61 65.81 75.74 62.92 74.57
  A 0.54 0.54 0.0 0 1 62.68 73.75
  Q 64.20 71.66 67.04 71.90
  Q 71.25 71.34 74.85 69.38
  A 0.58 0.58 0.0 0 1 75.61 69.58
  Q 76.23 70.57 76.05 72.51
  Z"
/>
<path fill="#554739" d="
  M 67.88 103.75
  C 56.01 106.64 43.87 105.99 32.27 102.61
  C 28.80 101.60 19.35 97.83 18.66 93.66
  Q 17.49 86.61 22.55 82.32
  A 0.84 0.84 0.0 0 1 23.56 82.26
  C 27.59 84.87 30.98 87.29 35.06 86.59
  A 1.26 1.26 0.0 0 0 35.40 84.22
  L 27.26 80.29
  A 2.17 2.17 0.0 0 1 26.12 77.76
  C 26.62 75.99 28.68 72.26 30.85 71.53
  Q 31.64 71.26 33.19 71.60
  Q 38.26 72.73 42.03 70.89
  L 43.11 85.90
  A 1.31 1.29 21.0 0 0 43.49 86.74
  C 46.47 89.68 50.30 91.05 53.59 92.80
  Q 54.97 93.54 58.47 96.69
  Q 62.79 100.58 67.88 103.75
  Z"
/>
<ellipse fill="#bd9c71" cx="0.00" cy="0.00" transform="translate(80.20,85.87) rotate(-118.0)" rx="2.20" ry="0.62"/>
<path fill="#bd9c71" d="
  M 118.15 107.16
  A 0.61 0.61 0.0 0 1 118.06 108.23
  Q 113.22 110.37 107.86 111.36
  Q 103.56 112.15 100.49 115.95
  C 98.20 118.78 90.70 117.12 87.95 115.78
  Q 84.77 114.23 83.00 113.65
  A 5.81 5.68 53.5 0 0 81.20 113.36
  Q 75.30 113.40 69.49 113.36
  Q 67.24 113.34 66.23 111.94
  A 1.63 1.34 -34.5 0 1 66.83 109.87
  Q 71.63 106.70 76.74 104.48
  A 6.90 6.68 13.9 0 0 78.12 103.68
  Q 80.92 101.63 86.25 96.26
  Q 87.84 94.66 90.20 94.65
  A 1.99 1.93 -28.5 0 1 91.23 94.94
  Q 98.22 99.18 106.60 101.60
  C 111.56 103.04 113.96 104.41 118.15 107.16
  Z"
/>
</svg>
